<?xml version="1.0" encoding="utf-8"?><!DOCTYPE svg PUBLIC "-//W3C//DTD SVG 1.1//EN" "http://www.w3.org/Graphics/SVG/1.1/DTD/svg11.dtd"><svg version="1.1" id="Layer_1" xmlns="http://www.w3.org/2000/svg" xmlns:xlink="http://www.w3.org/1999/xlink" x="0px" y="0px"  width="197px" height="42px" viewBox="0 0 197 42" enable-background="new 0 0 197 42" xml:space="preserve"><g> <path fill-rule="evenodd" clip-rule="evenodd" d="M10.7,16.2c0,1.5-0.9,2.6-2.4,2.9c-0.6,0.1-1.4,0.2-2.4,0.2c-0.7,0-1,0-1.7-0.1  v-5.9c0.9-0.1,1.3-0.1,2-0.1c2,0,2.8,0.2,3.5,0.7C10.4,14.5,10.7,15.3,10.7,16.2 M15.9,31l-4.5-9.4c2.3-0.8,3.7-2.9,3.7-5.6  c0-1.9-0.7-3.5-1.9-4.5c-1.3-1-2.6-1.4-5.4-1.4H0v21h4.3v-8.6c0.9,0.1,1.2,0.1,1.7,0.1c0.5,0,0.7,0,1.4-0.1l4,8.6H15.9z"/> <polygon points="34,31 34,27.6 24.6,27.6 24.6,21.9 32.9,21.9 32.9,18.6 24.6,18.6 24.6,13.4 33.9,13.4 33.9,10 20.2,10 20.2,31    "/> <path fill-rule="evenodd" clip-rule="evenodd" d="M51.5,20.4c0,4.9-2.3,7.3-7.1,7.3c-0.6,0-0.9,0-1.6-0.1V13.3  c0.8-0.1,1.1-0.1,1.6-0.1c3,0,4.6,0.7,5.8,2.3C51.1,16.8,51.5,18.3,51.5,20.4 M56.1,20.3c0-6.5-3.6-10.3-9.9-10.3h-7.7v21h6.8  C52.3,31,56.1,27.3,56.1,20.3"/> <rect x="59.8" y="10" width="4.1" height="21"/> <path d="M86.7,31.1V10h-3.9v10.4v2.2c0,0.8,0,1.3,0,1.6c0,0.4,0.1,1,0.1,1.7c-0.5-1.1-0.7-1.5-1.2-2.5c-0.3-0.6-0.6-1.1-0.8-1.5  L74,10h-4.9v21h4V20.3c0-0.2,0-0.7-0.1-1.7c0-1.1,0-1.7-0.1-1.8c0-0.4-0.1-1.1-0.2-2c0.8,1.8,1,2.3,2.2,4.2l7.1,12H86.7z"/> <path d="M107.5,12.9c-2-2.4-4.3-3.4-7.7-3.4c-6.1,0-9.7,4.1-9.7,11c0,7.1,3.4,11,9.6,11c2.8,0,5-0.7,7.7-2.2v-9.7h-7.6v3.4h3.7v4.2  c-1.3,0.8-1.9,0.9-3.3,0.9c-3.7,0-5.5-2.6-5.5-7.6c0-4.8,2-7.5,5.6-7.5c2,0,3.2,0.6,5,2.5L107.5,12.9z"/> <polygon points="125.4,13.4 125.4,10 110,10 110,13.4 115.5,13.4 115.5,31 119.9,31 119.9,13.4  "/> <path fill-rule="evenodd" clip-rule="evenodd" d="M142.1,20.5c0,4.8-1.9,7.5-5.4,7.5c-3.4,0-5.2-2.5-5.2-7.4c0-4.9,1.9-7.6,5.3-7.6  C140.4,13,142.1,15.4,142.1,20.5 M146.5,20.3c0-7-3.5-10.8-9.7-10.8c-6.1,0-9.7,4.1-9.7,11.1c0,7,3.4,11,9.5,11  C142.9,31.5,146.5,27.5,146.5,20.3"/> <path d="M168,31.1V10h-3.9v10.4v2.2c0,0.8,0,1.3,0,1.6c0,0.4,0.1,1,0.1,1.7c-0.5-1.1-0.7-1.5-1.2-2.5c-0.3-0.6-0.6-1.1-0.8-1.5  L155.3,10h-4.9v21h4V20.3c0-0.2,0-0.7-0.1-1.7c0-1.1,0-1.7-0.1-1.8c0-0.4-0.1-1.1-0.2-2c0.8,1.8,1,2.3,2.2,4.2l7.1,12H168z"/> <polygon fill="#EE3124" points="183.6,0 196.3,20.8 183.6,41.7 169.8,41.7 182.4,20.8 169.7,0  "/></g></svg>